PathFileType	4	(X/Y/Z)	C:\Users\Basilio\Documents\Thesis Gigler\squatting_fais\c3dfiles\044\SLS_front_pre5\markers_experimental.trc
DataRate	CameraRate	NumFrames	NumMarkers	Units	OrigDataRate	OrigDataStartFrame	OrigNumFrames
200.000000	200.000000	4	60	mm	200.000000	1070	1427
Frame#	Time	FHD			LBHD			RBHD			C7			T10			LSHO			LUUPA			LMUPA			LDUPA			LLEP			LMEP			LUL			LRFIN			RSHO			RUPA1			RMUPA			RDUPA			RLEP			RMEP			RUL			RUFIN			LASI			RASI			USACR			LSACR			RSACR			LTHI1			LTHI2			LTHI3			LTHI4			LLFC			LMFC			LTIB1			LTIB2			LTIB3			LTIB4			LLMAL			LMMAL			LHEE			LMT1			LMT2			LMT5			RTHI			RTHI2			RTHI3			RTHI4			RLFC			RMFC			RTIB1			RTIB2			RTIB3			RTIB4			RLMAL			RHEE			RMT1			RMT2			RMT5			CLAV			RMMAL			LRAD			
		X1	Y1	Z1	X2	Y2	Z2	X3	Y3	Z3	X4	Y4	Z4	X5	Y5	Z5	X6	Y6	Z6	X7	Y7	Z7	X8	Y8	Z8	X9	Y9	Z9	X10	Y10	Z10	X11	Y11	Z11	X12	Y12	Z12	X13	Y13	Z13	X14	Y14	Z14	X15	Y15	Z15	X16	Y16	Z16	X17	Y17	Z17	X18	Y18	Z18	X19	Y19	Z19	X20	Y20	Z20	X21	Y21	Z21	X22	Y22	Z22	X23	Y23	Z23	X24	Y24	Z24	X25	Y25	Z25	X26	Y26	Z26	X27	Y27	Z27	X28	Y28	Z28	X29	Y29	Z29	X30	Y30	Z30	X31	Y31	Z31	X32	Y32	Z32	X33	Y33	Z33	X34	Y34	Z34	X35	Y35	Z35	X36	Y36	Z36	X37	Y37	Z37	X38	Y38	Z38	X39	Y39	Z39	X40	Y40	Z40	X41	Y41	Z41	X42	Y42	Z42	X43	Y43	Z43	X44	Y44	Z44	X45	Y45	Z45	X46	Y46	Z46	X47	Y47	Z47	X48	Y48	Z48	X49	Y49	Z49	X50	Y50	Z50	X51	Y51	Z51	X52	Y52	Z52	X53	Y53	Z53	X54	Y54	Z54	X55	Y55	Z55	X56	Y56	Z56	X57	Y57	Z57	X58	Y58	Z58	X59	Y59	Z59	X60	Y60	Z60	

1071	5.350000000000001	-218.9351043701172	1813.968505859375	-993.496032714844	-346.3649902343751	1772.771240234375	-1076.710571289063	-393.8514099121095	1746.9189453125	-919.2539672851565	-399.9469604492189	1582.731567382813	-1008.528137207031	-419.2300415039064	1281.695922851563	-997.5900878906252	-306.6212158203126	1604.005126953125	-1149.307373046875	-139.0714721679688	1573.396850585938	-1241.142456054688	-112.6771316528321	1583.8212890625	-1199.210815429688	-69.39101409912111	1566.637084960938	-1240.562744140625	-12.1302490234375	1563.749389648438	-1227.06982421875	-25.11682510375977	1487.646362304688	-1213.879272460938	232.2044830322266	1566.741577148438	-1088.552001953125	230.9083251953126	1585.578979492188	-986.4492187500002	-318.5648803710938	1585.69189453125	-847.580017089844	-171.7004089355469	1554.173828125	-736.6157226562501	-139.2006530761719	1568.778686523438	-773.0650024414065	-102.4769744873047	1551.349487304688	-728.4367675781251	-40.39709091186524	1553.08349609375	-733.7386474609376	-43.58015441894532	1472.315185546875	-748.1371459960939	216.1482238769532	1568.220703125	-850.352966308594	221.5824127197266	1559.79345703125	-965.3942871093752	-256.3091125488282	1069.450927734375	-1084.507690429688	-260.3754882812501	1075.133666992188	-868.4884033203127	-424.6679687500001	1131.4833984375	-980.7119750976565	-428.892791748047	1096.628784179688	-1004.139709472656	-432.133514404297	1106.299438476563	-947.9133300781252	-340.7579650878907	825.0762939453127	-1137.195190429688	-300.8041992187501	749.4536132812501	-1136.2021484375	-252.8087921142579	756.0415649414064	-1133.359130859375	-322.1210327148438	696.4320678710939	-1118.96875	-289.3100280761719	540.7529296875001	-1100.978149414063	-285.7080078125001	540.8112182617189	-978.267761230469	-272.4535217285157	368.4575195312501	-1017.373718261719	-295.4546203613282	318.4306945800782	-1087.406372070313	-267.3761596679688	318.9950561523438	-1048.9345703125	-287.4155273437501	243.3393707275391	-1016.543579101563	-341.6470947265626	127.4738006591797	-1059.217529296875	-324.2023925781251	136.4550933837891	-974.3188476562502	-407.5357055664064	111.2896118164063	-1009.138793945313	-202.1941680908204	62.19879150390626	-985.3572998046877	-199.7747802734376	64.37573242187501	-1032.115966796875	-238.8984069824219	50.45769500732423	-1078.167236328125	-315.7545776367188	811.3255615234377	-758.1503295898439	-266.1214904785157	765.3656005859376	-752.3650512695314	-234.7158508300782	772.0655517578127	-761.2310180664064	-277.0800781250001	681.3151855468751	-757.4467163085939	-262.1675720214844	573.2183837890626	-749.0058593750001	-277.7532653808594	549.9846801757814	-868.2207031250002	-228.4443054199219	439.9721679687501	-760.8041381835939	-301.0101013183594	383.3972167968751	-699.1106567382814	-262.2334594726563	370.2808837890626	-718.5584716796876	-259.3848266601563	315.5473022460938	-737.3795776367189	-335.6288452148438	174.98046875	-692.0388793945314	-401.7947692871095	137.6044311523438	-727.0375366210939	-199.5913238525391	91.93235778808595	-764.7294921875001	-189.1535034179688	93.2041702270508	-729.4134521484376	-223.4785156250001	84.38370513916017	-672.1640625000001	-260.9370422363282	1543.542846679688	-1005.564514160156	-324.3294677734376	168.3776245117188	-776.638122558594	215.3136138916016	1520.502685546875	-1039.550048828125	
1072	5.355	-219.0010223388672	1814.11669921875	-993.0362548828127	-346.4512023925782	1772.725830078125	-1076.235229492188	-393.8645629882814	1746.91748046875	-918.7693481445315	-399.8040771484376	1582.711547851563	-1007.992919921875	-418.900360107422	1281.50146484375	-996.9732055664065	-306.7002258300782	1603.999267578125	-1148.874755859375	-138.6606597900391	1573.262451171875	-1240.80712890625	-112.636589050293	1583.784423828125	-1198.663696289063	-69.32555389404298	1566.740600585938	-1239.992919921875	-11.98847770690918	1563.743774414063	-1226.518432617188	-25.07185935974122	1487.027587890625	-1213.15771484375	232.4290771484376	1566.755737304688	-1087.8662109375	231.0336303710938	1586.09326171875	-985.9097290039065	-318.6870117187501	1585.7890625	-846.9194335937502	-171.6954650878907	1554.308227539063	-736.1511230468751	-139.2885437011719	1569.14208984375	-772.6129150390627	-102.4085159301758	1551.382080078125	-727.8438720703126	-40.31466293334962	1553.255004882813	-733.2588500976564	-43.53501892089844	1472.352661132813	-747.5211791992189	216.1846313476563	1568.12744140625	-849.5834960937502	221.6800231933594	1559.861328125	-964.9261474609377	-255.7921752929688	1069.601684570313	-1083.959350585938	-259.8915100097657	1075.125	-867.9671630859377	-424.2114868164064	1131.3466796875	-980.1918945312502	-428.3238220214845	1096.749755859375	-1003.693786621094	-431.4758605957032	1106.578491210938	-947.284118652344	-340.3575744628907	825.154235839844	-1136.848388671875	-300.5707397460938	749.6580200195314	-1135.953979492188	-253.0881042480469	756.3569946289064	-1133.07568359375	-322.0107727050782	696.5477905273439	-1118.687133789063	-289.3125610351563	540.7630004882814	-1100.744384765625	-285.7329711914063	540.8379516601564	-978.047058105469	-272.4601745605469	368.4159851074219	-1017.288024902344	-295.5291442871094	318.4371337890626	-1087.301025390625	-267.3280334472657	318.8723449707032	-1048.903076171875	-287.3252868652344	243.345199584961	-1016.584838867188	-341.6145324707032	127.7751617431641	-1059.12158203125	-324.2380065917969	136.4688568115235	-974.3687744140627	-407.2088317871095	110.4769592285157	-1008.688354492188	-202.1767578125001	62.1869583129883	-985.3748168945315	-199.7519989013672	64.3774871826172	-1032.155883789063	-238.8199005126954	50.52796554565431	-1078.1376953125	-315.9698791503907	811.276062011719	-757.5151367187501	-266.3862609863282	765.2712402343751	-751.7706298828126	-234.8884582519532	771.8035888671877	-760.6697998046876	-277.6899108886719	681.5604248046876	-757.0244750976564	-262.6429138183594	573.1367797851564	-748.3970336914064	-278.3235473632813	549.7315673828126	-867.7413330078127	-228.6764526367188	439.5926513671876	-760.2462768554689	-301.4177246093751	383.2382202148438	-698.5887451171876	-262.4103393554688	370.0868530273438	-718.1462402343751	-259.6441040039063	315.4001464843751	-736.8037109375001	-335.7662048339844	174.6361083984375	-691.6475830078126	-401.825897216797	137.4340057373047	-726.8367919921876	-200.0386199951172	91.83885955810548	-764.2332763671876	-189.1381225585938	92.94019317626955	-728.9628295898439	-223.5386962890626	84.09104919433595	-671.8752441406251	-260.8704833984376	1543.6171875	-1005.172302246094	-324.3449707031251	168.2055816650391	-776.174499511719	215.3974914550782	1520.401245117188	-1038.954711914063	
1073	5.36	-218.9900360107422	1814.20849609375	-992.5932617187502	-346.5588989257813	1772.68603515625	-1075.697143554688	-393.8454895019532	1747.002319335938	-918.2840576171877	-399.6419372558595	1582.628295898438	-1007.519165039063	-418.4204406738282	1281.555541992188	-996.5603027343752	-306.6580810546876	1604.118774414063	-1148.24853515625	-138.5345611572266	1573.188354492188	-1240.33642578125	-112.5655899047852	1583.852172851563	-1198.018432617188	-69.17562866210939	1566.78173828125	-1239.436645507813	-11.8434362411499	1563.789672851563	-1225.984985351563	-24.90497016906739	1487.189819335938	-1212.786743164063	232.6261444091797	1566.799560546875	-1087.2529296875	231.0953216552735	1586.314208984375	-985.3267822265627	-318.2739257812501	1586.115478515625	-846.6888427734377	-171.6795196533203	1554.497802734375	-735.5842895507814	-139.2745971679688	1569.396606445313	-772.304870605469	-102.3611679077149	1551.475952148438	-727.3023681640626	-40.29981231689454	1553.457763671875	-732.6867065429689	-43.62520980834962	1472.783569335938	-746.9956665039064	216.1961975097657	1568.418579101563	-849.0108642578127	221.6468353271485	1560.083740234375	-964.2579345703127	-255.4338073730469	1069.704467773438	-1083.40673828125	-259.5530395507813	1075.142700195313	-867.1815185546877	-423.6649475097657	1131.385620117188	-979.5098876953127	-427.7645874023439	1096.785034179688	-1003.160400390625	-431.2959899902345	1106.69677734375	-946.7112426757815	-339.9946289062501	825.2945556640627	-1136.4541015625	-300.3638916015626	749.8298950195314	-1135.589599609375	-252.8600616455079	756.4036254882814	-1132.7548828125	-321.8216247558594	696.7189331054689	-1118.46142578125	-289.2971496582032	540.7834472656251	-1100.487426757813	-285.6373596191407	540.8862304687501	-977.8504028320315	-272.4489440917969	368.4358825683594	-1017.186462402344	-295.1821899414063	318.9729003906251	-1087.10546875	-267.3057250976563	318.9117431640626	-1048.849243164063	-287.3813781738282	243.3629760742188	-1016.574768066406	-341.6632690429688	127.4489288330078	-1059.216918945313	-324.2351684570313	136.4874572753907	-974.4682617187502	-407.4529113769532	111.1720581054688	-1009.190856933594	-202.2073974609376	62.15575790405275	-985.3859863281252	-199.7855224609376	64.36864471435548	-1032.144287109375	-238.9682769775391	50.3324432373047	-1078.211669921875	-315.9971923828126	811.238464355469	-756.9666137695314	-266.4421081542969	765.1264038085939	-751.3638305664064	-235.0741119384766	771.8031005859377	-759.8453979492189	-278.2041320800782	681.3762817382814	-756.2932128906251	-263.1741638183594	572.9329223632814	-747.8739624023439	-278.7033691406251	549.6015014648439	-867.172058105469	-229.0649414062501	439.4682617187501	-759.5888061523439	-301.8773193359376	383.1103210449219	-698.1458129882814	-262.7998962402344	369.5834655761719	-717.5050659179689	-259.7628479003907	315.0447082519532	-736.2970581054689	-335.7689208984376	174.1472473144532	-691.2810668945314	-401.9301757812501	137.3087158203125	-726.4970092773439	-200.0036926269532	91.60581207275392	-763.9839477539064	-189.1821594238282	92.69322204589845	-728.7162475585939	-223.6300048828126	83.77523040771486	-671.6323852539064	-260.8460998535157	1543.743530273438	-1004.633239746094	-324.2752685546876	167.9371032714844	-775.8489379882815	215.5562896728516	1520.740112304688	-1038.320678710938	
1074	5.365	-219.1087799072266	1814.376708984375	-992.2026977539065	-346.5411682128907	1772.842895507813	-1075.290283203125	-393.9757690429689	1747.034301757813	-917.7695922851565	-399.6232910156251	1582.601806640625	-1006.9384765625	-417.9721679687501	1281.44140625	-996.0457153320315	-306.7930908203126	1604.112182617188	-1147.761352539063	-138.4956665039063	1573.051391601563	-1239.890869140625	-112.3966522216797	1583.84033203125	-1197.579956054688	-69.10726165771486	1566.7880859375	-1238.868408203125	-11.64211750030518	1563.889770507813	-1225.468505859375	-24.7535800933838	1487.470947265625	-1212.210571289063	232.4431152343751	1567.283569335938	-1086.713256835938	231.0776977539063	1586.507568359375	-984.6775512695315	-318.2622375488282	1586.211669921875	-846.200378417969	-171.7311706542969	1554.603759765625	-735.0951538085939	-139.1233978271485	1569.634033203125	-771.6030273437502	-102.3611221313477	1551.635131835938	-726.6984863281251	-40.20917892456055	1553.577392578125	-732.0852050781251	-43.60836791992188	1472.964599609375	-746.2708740234376	216.2643585205079	1568.676879882813	-848.3445434570315	222.3215789794922	1560.327026367188	-963.4248046875002	-255.0135345458985	1069.863525390625	-1082.805419921875	-258.8336791992188	1075.181518554688	-866.6069946289065	-423.1719665527345	1131.505004882813	-978.9558105468752	-427.4488830566407	1096.801147460938	-1002.541870117188	-430.8987121582032	1106.565795898438	-946.2153320312502	-339.6751403808594	825.458190917969	-1136.16796875	-300.1453857421876	749.9683227539064	-1135.178100585938	-252.5687255859376	756.4596557617189	-1132.364501953125	-321.5959777832032	696.7894897460939	-1118.155151367188	-289.2950439453126	540.7818603515626	-1100.267211914063	-285.5362854003907	540.7694702148439	-977.550476074219	-272.4074096679688	368.4552001953126	-1017.130554199219	-295.6828002929688	318.5672912597657	-1087.031127929688	-267.3227233886719	318.9534606933594	-1048.740234375	-287.3184814453126	243.3213195800782	-1016.555480957031	-341.6249084472657	127.5136337280274	-1059.228393554688	-324.1983947753907	136.4232177734375	-974.4204101562502	-407.4576721191407	111.1043395996094	-1009.17236328125	-202.1534729003907	62.1876792907715	-985.4110107421877	-199.4399108886719	63.797664642334	-1032.358520507813	-238.8268585205079	50.47887420654298	-1078.150146484375	-316.0445861816407	811.3771972656252	-756.5386962890626	-266.7251586914063	765.0918579101564	-750.5270385742189	-235.3386230468751	771.5874023437502	-759.1160888671876	-278.3744201660157	681.3170166015626	-755.6875610351564	-263.8240356445313	572.6318359375001	-747.2813110351564	-279.0536499023438	549.4876708984376	-866.6172485351565	-229.504135131836	439.3457641601564	-758.8905639648439	-302.2223815917969	382.6694641113282	-697.7644042968751	-263.0967712402344	369.4108581542969	-716.8375854492189	-260.0694885253907	314.7233886718751	-735.7725830078126	-335.9209594726563	173.9375	-691.0642089843751	-401.9992675781251	137.1431121826172	-726.2861938476564	-199.9985046386719	91.45199584960939	-763.7911376953126	-189.1896514892578	92.32977294921876	-728.3748168945314	-223.6469879150391	83.35371398925783	-671.3184204101564	-260.6071777343751	1543.889404296875	-1003.931091308594	-324.2778625488282	167.810775756836	-775.5159912109377	215.643783569336	1520.543090820313	-1037.636352539063	
